<svg xmlns="http://www.w3.org/2000/svg" xmlns:xlink="http://www.w3.org/1999/xlink" viewBox="0 0 698.19 90.9"><defs><style>.cls-1,.cls-5,.cls-6,.cls-7,.cls-8,.cls-9{fill:none;}.cls-2{fill:#fa5457;}.cls-3{fill:#f98824;}.cls-4{clip-path:url(#clip-path);}.cls-5{stroke:#5fa55a;}.cls-5,.cls-6,.cls-7,.cls-8,.cls-9{stroke-miterlimit:10;stroke-width:6px;}.cls-6{stroke:#f6d51f;}.cls-7{stroke:#f98824;}.cls-8{stroke:#01b4bc;}.cls-9{stroke:#fa5457;}.cls-10{fill:#999;}</style><clipPath id="clip-path"><path class="cls-1" d="M466.63,40c0,13.12-10.38,23.75-23.18,23.75S420.27,53.1,420.27,40s10.38-23.74,23.18-23.74a22.85,22.85,0,0,1,16.39,7A24,24,0,0,1,466.63,40Z"/></clipPath></defs><g id="Layer_2" data-name="Layer 2"><g id="Layer_7" data-name="Layer 7"><path class="cls-2" d="M279.53,25.78c7,.49,12.6,6.67,12.6,14.21a14.65,14.65,0,0,1-3.34,9.37l6.37,6.72a24.4,24.4,0,0,0,6-16.09c0-12.77-9.6-23.22-21.6-23.72Z"/><path class="cls-3" d="M287.52,50.7a13,13,0,0,1-8.89,3.53c-7.44,0-13.5-6.39-13.5-14.24,0-7.54,5.58-13.72,12.6-14.21V16.27c-12,.5-21.6,11-21.6,23.72,0,13.09,10.1,23.74,22.5,23.74a21.81,21.81,0,0,0,15.26-6.31Z"/></g><g id="Layer_5" data-name="Layer 5"><g class="cls-4"><line class="cls-5" x1="443.13" y1="16.73" x2="443.13" y2="65.73"/><line class="cls-6" x1="434.13" y1="29.73" x2="434.13" y2="65.73"/><line class="cls-7" x1="425.13" y1="46.73" x2="425.13" y2="59.73"/><line class="cls-8" x1="453.13" y1="29.73" x2="453.13" y2="65.73"/><line class="cls-9" x1="462.13" y1="45.73" x2="462.13" y2="63.73"/></g></g><g id="Layer_2-2" data-name="Layer 2"><path class="cls-10" d="M0,.2c.6.93,1.85,2.72,3.75,5.35l6.6,9.15,8,11.05,7.9,11,6.45,9q2.74,3.79,3.65,5c.2-.33.83-1.23,1.9-2.7s2.38-3.3,3.95-5.5,3.35-4.68,5.35-7.45l6.15-8.5q3.15-4.35,6.2-8.65t5.65-7.85c1.73-2.37,3.22-4.43,4.45-6.2S72.07.87,72.6.2V75.9H61V35.3a10.39,10.39,0,0,1,.15-1.7,8.94,8.94,0,0,0,.15-1.3q-.9,1.2-2.85,4.05T54,42.85q-2.55,3.65-5.35,7.7T43.3,58.2c-1.67,2.4-3.13,4.52-4.4,6.35s-2.13,3.12-2.6,3.85c-.47-.6-1.38-1.85-2.75-3.75L28.75,58Q26,54.21,23,49.9t-5.65-8c-1.73-2.47-3.23-4.58-4.5-6.35a38.72,38.72,0,0,1-2.2-3.25,8.94,8.94,0,0,0,.15,1.3,10.39,10.39,0,0,1,.15,1.7V75.9H0Z"/><path class="cls-10" d="M135.3,75.9c-.34-.73-.8-1.8-1.4-3.2s-1.29-3-2.05-4.85-1.6-3.83-2.5-6-1.82-4.42-2.75-6.75H101L92.4,75.9H81.6L113.9,0c.4.93,1.11,2.63,2.15,5.1s2.26,5.42,3.7,8.85,3,7.23,4.8,11.4S128.11,33.73,130,38l5.4,12.6Q138,56.79,140.2,62L144,70.85c1,2.43,1.75,4.12,2.15,5.05Zm-30.5-30h18.1q-1.41-3.3-2.65-6.35c-.84-2-1.6-3.9-2.3-5.6s-1.32-3.18-1.85-4.45-.94-2.27-1.2-3a12,12,0,0,1-.45-1.4c-.24-.8-.42-1.53-.55-2.2a21.21,21.21,0,0,1-.6,2.2c-.27.8-.44,1.27-.5,1.4Z"/><path class="cls-10" d="M155.1,75.9V3.4h19.8a34.58,34.58,0,0,1,10.45,1.5,23.2,23.2,0,0,1,8.2,4.45,20.27,20.27,0,0,1,5.35,7.2,23.75,23.75,0,0,1,1.9,9.75,29.8,29.8,0,0,1-.6,5.95,23.43,23.43,0,0,1-1.95,5.7,22.68,22.68,0,0,1-3.45,5.1,18.32,18.32,0,0,1-5.1,4q4,6.3,8.7,14t9.5,15H194.8c-1.34-2.07-2.72-4.23-4.15-6.5s-2.87-4.52-4.3-6.75-2.84-4.43-4.2-6.6-2.65-4.18-3.85-6H166.1V75.9Zm11-36.2H176a14.92,14.92,0,0,0,6.7-1.35A12.21,12.21,0,0,0,187,35a12.73,12.73,0,0,0,2.2-4.3,15.65,15.65,0,0,0,.65-4.2,15.14,15.14,0,0,0-.65-4.15,11.92,11.92,0,0,0-2.25-4.2,12.67,12.67,0,0,0-4.25-3.25,14.76,14.76,0,0,0-6.55-1.3h-10Z"/><path class="cls-10" d="M217.9,3.4h10.9V75.9H217.9Z"/><path class="cls-10" d="M241.5,39.7a35.61,35.61,0,0,1,2.9-14.25,37.82,37.82,0,0,1,19.7-19.9,36.5,36.5,0,0,1,28.75,0,37.75,37.75,0,0,1,11.8,8.05,38.88,38.88,0,0,1,8,11.85,36.25,36.25,0,0,1,0,28.65,38.43,38.43,0,0,1-8,11.75,37.3,37.3,0,0,1-11.8,8,37.08,37.08,0,0,1-28.75,0,37.45,37.45,0,0,1-19.7-19.7A35.77,35.77,0,0,1,241.5,39.7Zm10.9.1a26.47,26.47,0,0,0,7.7,18.8,27.14,27.14,0,0,0,8.4,5.7,25.17,25.17,0,0,0,10.2,2.1,24.83,24.83,0,0,0,10.15-2.1A26.64,26.64,0,0,0,304.8,39.7a26.47,26.47,0,0,0-7.7-18.8,27.4,27.4,0,0,0-8.35-5.7,24.83,24.83,0,0,0-10.15-2.1,25.17,25.17,0,0,0-10.2,2.1,26.7,26.7,0,0,0-16,24.6Z"/><path class="cls-10" d="M394.29,75.9q-3.5-4.5-6.7-8.6t-6.3-8.2Q378.2,55,375,50.8t-6.65-8.7c-.86.93-1.7,1.78-2.5,2.55s-1.66,1.55-2.6,2.35q0,7.7,0,14.45t.05,14.45h-12.1V3.4h12.1V30.5a10.08,10.08,0,0,1-.15,1.75,10.08,10.08,0,0,0-.15,1.75,15.61,15.61,0,0,1,1-1.25,9.1,9.1,0,0,0,1-1.35q7.11-6.7,13.7-13.95t13.7-14h13.9q-7.5,7.8-14.85,15.7T376.69,34.8q4.2,5.4,8.05,10.45t7.6,10q3.75,5,7.55,10.1t7.9,10.5Z"/><path class="cls-10" d="M406.39,39.7a35.78,35.78,0,0,1,2.9-14.25A37.82,37.82,0,0,1,429,5.55a36.5,36.5,0,0,1,28.75,0,37.63,37.63,0,0,1,11.8,8.05,38.53,38.53,0,0,1,8,11.85,35.14,35.14,0,0,1,2.95,14.25,35.3,35.3,0,0,1-2.95,14.4,38.08,38.08,0,0,1-8,11.75,37.19,37.19,0,0,1-11.8,8,37.08,37.08,0,0,1-28.75,0,37.45,37.45,0,0,1-19.7-19.7A35.94,35.94,0,0,1,406.39,39.7Zm10.9.1A26.47,26.47,0,0,0,425,58.6a27.14,27.14,0,0,0,8.4,5.7,25.17,25.17,0,0,0,10.2,2.1,24.8,24.8,0,0,0,10.15-2.1,26.64,26.64,0,0,0,15.95-24.6A26.47,26.47,0,0,0,462,20.9a27.28,27.28,0,0,0-8.35-5.7,24.8,24.8,0,0,0-10.15-2.1,25.17,25.17,0,0,0-10.2,2.1,26.7,26.7,0,0,0-16,24.6Z"/><path class="cls-10" d="M479,90.9V80.6a17.09,17.09,0,0,0,11.45-4.8q4.46-4.39,4.45-13.7V3.4h11v59a33.06,33.06,0,0,1-2,11.9,25.3,25.3,0,0,1-5.6,8.85,24.48,24.48,0,0,1-8.55,5.6A32,32,0,0,1,479,90.9Z"/><path class="cls-10" d="M523.39,3.4h10.9V75.9h-10.9Z"/><path class="cls-10" d="M552.09.2c.6.93,1.85,2.72,3.75,5.35l6.6,9.15,7.95,11.05,7.9,11,6.45,9q2.75,3.79,3.65,5c.2-.33.83-1.23,1.9-2.7s2.38-3.3,4-5.5,3.35-4.68,5.35-7.45l6.15-8.5q3.15-4.35,6.2-8.65t5.65-7.85c1.73-2.37,3.22-4.43,4.45-6.2s2.12-3,2.65-3.65V75.9h-11.6V35.3a10.39,10.39,0,0,1,.15-1.7,8.94,8.94,0,0,0,.15-1.3q-.9,1.2-2.85,4.05t-4.5,6.5q-2.55,3.65-5.35,7.7t-5.3,7.65c-1.67,2.4-3.13,4.52-4.4,6.35s-2.13,3.12-2.6,3.85c-.47-.6-1.38-1.85-2.75-3.75L580.84,58q-2.75-3.8-5.8-8.1t-5.65-8c-1.73-2.47-3.23-4.58-4.5-6.35a38.72,38.72,0,0,1-2.2-3.25,8.94,8.94,0,0,0,.15,1.3,10.39,10.39,0,0,1,.15,1.7V75.9h-10.9Z"/><path class="cls-10" d="M687.39,75.9c-.33-.73-.8-1.8-1.4-3.2s-1.28-3-2-4.85-1.6-3.83-2.5-6-1.82-4.42-2.75-6.75h-25.6l-8.6,20.8h-10.8L666,0q.6,1.4,2.15,5.1l3.7,8.85q2.14,5.15,4.8,11.4T682,38l5.4,12.6q2.65,6.19,4.85,11.4L696,70.85c1,2.43,1.75,4.12,2.15,5.05Zm-30.5-30H675c-.93-2.2-1.82-4.32-2.65-6.35L670,34q-1-2.55-1.85-4.45t-1.2-3a12,12,0,0,1-.45-1.4c-.23-.8-.42-1.53-.55-2.2a17.16,17.16,0,0,1-.6,2.2c-.27.8-.43,1.27-.5,1.4Z"/></g></g></svg>